<?xml version="1.0" standalone="no"?>
<!DOCTYPE svg PUBLIC "-//W3C//DTD SVG 20010904//EN"
 "http://www.w3.org/TR/2001/REC-SVG-20010904/DTD/svg10.dtd">
<svg version="1.0" xmlns="http://www.w3.org/2000/svg"
 width="499.000000pt" height="108.000000pt" viewBox="0 0 499.000000 108.000000"
 preserveAspectRatio="xMidYMid meet">

<g transform="translate(0.000000,108.000000) scale(0.100000,-0.100000)"
fill="#000000" stroke="none">
<path d="M4301 983 c-6 -21 -47 -189 -91 -373 -44 -184 -89 -371 -100 -414
-27 -109 -28 -108 22 -104 l43 3 16 70 c30 129 199 820 205 838 5 14 -1 17
-40 17 -44 0 -46 -1 -55 -37z"/>
<path d="M3436 764 c-9 -8 -16 -21 -16 -28 0 -15 32 -46 48 -46 15 0 42 29 42
45 0 18 -27 45 -45 45 -7 0 -21 -7 -29 -16z"/>
<path d="M710 510 l0 -220 105 0 105 0 0 30 0 30 -75 0 -75 0 0 190 0 190 -30
0 -30 0 0 -220z"/>
<path d="M2730 510 l0 -220 111 0 110 0 -3 28 c-3 26 -5 27 -75 30 l-73 3 0
189 0 190 -35 0 -35 0 0 -220z"/>
<path d="M182 627 l-92 -92 93 -93 92 -92 55 0 55 0 -93 93 -92 92 92 93 93
92 -55 0 -55 0 -93 -93z"/>
<path d="M4658 632 c51 -48 92 -91 92 -97 0 -5 -41 -49 -92 -97 l-93 -88 58 0
58 0 95 92 95 92 -93 93 -93 93 -60 0 -60 0 93 -88z"/>
<path d="M1511 639 c-79 -17 -126 -82 -126 -174 1 -109 54 -167 160 -173 50
-3 66 0 94 20 19 13 43 38 54 56 l19 32 -34 0 c-24 0 -41 -7 -56 -25 -41 -47
-108 -43 -146 9 -16 21 -21 42 -21 88 0 55 3 62 33 89 45 40 94 40 132 -1 28
-30 54 -37 77 -22 18 11 -18 67 -54 85 -37 19 -91 26 -132 16z"/>
<path d="M2310 640 c-68 -13 -100 -45 -100 -101 0 -34 52 -76 116 -94 71 -21
84 -30 84 -61 0 -50 -88 -55 -129 -8 -16 19 -28 23 -44 18 -32 -10 -33 -12
-17 -42 21 -38 75 -62 139 -62 47 0 57 4 87 34 63 63 36 129 -66 161 -71 22
-100 41 -100 65 0 44 78 54 114 15 27 -28 76 -35 76 -9 0 57 -81 100 -160 84z"/>
<path d="M3685 640 c-68 -15 -95 -44 -95 -100 0 -43 30 -68 121 -99 64 -22 74
-30 77 -52 2 -19 -3 -28 -23 -37 -38 -18 -60 -15 -92 11 -35 29 -53 36 -75 28
-15 -5 -16 -10 -5 -31 58 -115 293 -76 263 44 -9 38 -44 65 -106 83 -72 21
-90 33 -90 60 0 46 77 58 114 18 28 -30 76 -35 76 -7 -1 53 -92 99 -165 82z"/>
<path d="M990 513 c0 -143 7 -165 60 -201 29 -20 44 -23 87 -20 33 3 61 12 73
23 20 18 21 18 27 -3 4 -16 13 -22 34 -22 l29 0 0 175 0 175 -30 0 c-16 0 -30
-3 -30 -7 -1 -5 -2 -58 -3 -120 -2 -103 -4 -113 -26 -137 -18 -19 -35 -26 -63
-26 -81 0 -98 32 -98 186 l0 104 -30 0 -30 0 0 -127z"/>
<path d="M1845 622 c-83 -52 -104 -179 -44 -266 46 -68 145 -87 213 -41 l36
24 0 -25 c0 -22 4 -25 33 -22 l32 3 3 173 2 172 -35 0 c-31 0 -35 -3 -35 -27
l0 -26 -25 23 c-36 33 -136 40 -180 12z m144 -46 c39 -21 61 -58 61 -106 0
-77 -39 -122 -106 -122 -100 0 -150 136 -76 205 43 40 76 46 121 23z"/>
<path d="M3012 513 c2 -75 9 -138 17 -153 32 -64 131 -90 196 -52 34 21 35 21
35 2 0 -16 7 -20 35 -20 l35 0 0 175 0 175 -35 0 -35 0 0 -119 c0 -105 -2
-121 -21 -145 -29 -36 -99 -37 -134 -1 -24 23 -25 30 -25 145 l0 120 -36 0
-36 0 4 -127z"/>
<path d="M3430 465 l0 -175 35 0 35 0 0 175 0 175 -35 0 -35 0 0 -175z"/>
</g>
</svg>
